<svg xmlns="http://www.w3.org/2000/svg" width="450" height="212" viewBox="0 0 450 212" role="img" aria-label="Negix brand logo">
<defs>
  <linearGradient id="white" x1="0" y1="0" x2="0" y2="1"><stop offset="0" stop-color="#ffffff"/><stop offset="1" stop-color="#edf2f8"/></linearGradient>
  <linearGradient id="blue" x1="0" y1="0" x2="1" y2="1"><stop offset="0" stop-color="#16c8ff"/><stop offset="0.5" stop-color="#1992ef"/><stop offset="1" stop-color="#1854d8"/></linearGradient>
  <filter id="glow" x="-30%" y="-30%" width="160%" height="160%"><feGaussianBlur stdDeviation="2.2" result="b"/><feMerge><feMergeNode in="b"/><feMergeNode in="SourceGraphic"/></feMerge></filter>
</defs>
<rect width="450" height="212" fill="#0a0b0d"/>
<path d="M 368 91 L 386 111 L 368 131 L 382 131 L 393 119 L 394 119 L 405 131 L 419 131 L 401 112 L 401 110 L 419 91 L 405 91 L 394 103 L 393 103 L 382 91 Z M 352 91 L 352 131 L 362 131 L 362 91 Z M 304 92 L 299 97 L 298 100 L 298 121 L 300 125 L 305 129 L 333 129 L 334 130 L 334 136 L 331 139 L 302 139 L 298 149 L 333 149 L 339 147 L 342 144 L 344 140 L 344 91 L 307 91 Z M 308 103 L 311 100 L 333 100 L 334 101 L 334 119 L 333 120 L 310 120 L 308 118 Z M 242 97 L 241 99 L 241 123 L 243 127 L 246 130 L 248 131 L 290 131 L 290 123 L 254 123 L 251 120 L 251 116 L 252 115 L 290 115 L 290 99 L 286 93 L 281 91 L 250 91 L 247 92 Z M 251 102 L 253 100 L 278 100 L 280 102 L 280 106 L 279 107 L 252 107 L 251 106 Z M 175 80 L 175 131 L 185 131 L 185 97 L 186 96 L 222 131 L 233 131 L 233 80 L 223 80 L 223 114 L 222 115 L 215 110 L 185 80 Z M 40 63 L 40 151 L 68 151 L 59 142 L 59 105 L 60 104 L 84 126 L 85 126 L 94 117 Z M 117 62 L 127 72 L 127 100 L 146 119 L 146 62 Z " fill="url(#white)" fill-rule="evenodd"/>
<path d="M 289 96 L 291 99 L 291 115 L 290 116 L 252 116 L 252 120 L 254 122 L 290 122 L 291 123 L 291 131 L 290 132 L 249 132 L 291 132 L 291 122 L 254 122 L 252 120 L 252 117 L 253 116 L 291 116 L 291 99 Z M 351 90 L 351 132 L 363 132 L 363 90 Z M 352 90 L 362 90 L 363 91 L 363 131 L 362 132 L 352 132 L 351 131 L 351 91 Z M 175 79 L 180 79 L 175 79 L 174 80 L 174 132 L 186 132 L 186 99 L 187 98 L 190 101 L 189 102 L 190 101 L 203 114 L 186 97 L 186 131 L 185 132 L 175 132 L 174 131 L 174 80 Z M 363 72 L 360 74 L 357 73 L 354 75 L 352 75 L 351 76 L 351 84 L 363 84 Z M 116 61 L 116 62 L 122 68 L 121 69 L 122 68 L 126 72 L 126 100 L 129 103 L 128 104 L 129 105 L 130 104 L 146 120 L 147 120 L 146 120 L 126 100 L 126 72 L 116 62 L 117 61 L 146 61 Z M 128 104 L 129 103 L 130 104 L 129 105 Z M 50 43 L 51 45 L 50 48 L 52 52 L 52 55 L 57 61 L 58 64 L 61 67 L 61 69 L 65 73 L 66 76 L 70 79 L 83 98 L 89 103 L 90 107 L 89 108 L 88 107 L 86 108 L 82 104 L 83 103 L 79 99 L 78 100 L 73 95 L 74 94 L 72 92 L 71 93 L 62 84 L 63 83 L 61 81 L 60 82 L 55 77 L 56 76 L 55 75 L 54 76 L 39 61 L 39 152 L 70 152 L 62 144 L 63 143 L 62 144 L 60 142 L 69 151 L 68 152 L 40 152 L 39 151 L 39 63 L 40 62 L 95 117 L 85 127 L 84 127 L 60 105 L 63 108 L 62 109 L 63 110 L 64 109 L 68 113 L 67 114 L 68 115 L 70 114 L 73 117 L 72 118 L 82 129 L 85 135 L 99 149 L 104 152 L 105 154 L 113 160 L 119 163 L 126 169 L 134 174 L 140 172 L 141 171 L 137 164 L 137 161 L 132 156 L 129 150 L 125 146 L 125 144 L 119 138 L 119 134 L 120 133 L 123 135 L 124 134 L 128 138 L 127 139 L 128 140 L 129 139 L 135 145 L 135 146 L 146 157 L 147 157 L 146 156 L 147 155 L 146 152 L 147 150 L 147 133 L 144 129 L 145 128 L 144 127 L 143 128 L 139 125 L 140 124 L 139 120 L 136 119 L 134 117 L 134 115 L 128 109 L 128 108 L 123 104 L 116 94 L 114 93 L 108 87 L 108 86 L 85 64 L 81 62 L 75 56 L 70 53 L 68 50 L 65 49 L 58 44 L 55 43 L 52 43 L 51 44 Z M 139 171 L 140 170 L 141 171 L 140 172 Z M 133 169 L 134 168 L 135 169 L 134 170 Z M 136 167 L 137 166 L 138 167 L 137 168 Z M 135 166 L 136 165 L 137 166 L 136 167 Z M 127 139 L 128 138 L 129 139 L 128 140 Z M 122 134 L 123 133 L 124 134 L 123 135 Z M 121 133 L 122 132 L 123 133 L 122 134 Z M 119 131 L 120 130 L 121 131 L 120 132 Z M 143 128 L 144 127 L 145 128 L 144 129 Z M 76 122 L 77 121 L 78 122 L 77 123 Z M 75 121 L 76 120 L 77 121 L 76 122 Z M 74 120 L 75 119 L 76 120 L 75 121 Z M 73 119 L 74 118 L 75 119 L 74 120 Z M 72 118 L 73 117 L 74 118 L 73 119 Z M 67 114 L 68 113 L 69 114 L 68 115 Z M 91 113 L 92 112 L 93 113 L 92 114 Z M 90 112 L 91 111 L 92 112 L 91 113 Z M 89 111 L 90 110 L 91 111 L 90 112 Z M 88 110 L 89 109 L 90 110 L 89 111 Z M 92 108 L 93 109 L 92 112 L 90 110 Z M 87 109 L 88 108 L 89 109 L 88 110 Z M 62 109 L 63 108 L 64 109 L 63 110 Z M 86 108 L 87 107 L 88 108 L 87 109 Z M 81 103 L 82 102 L 83 103 L 82 104 Z M 80 102 L 81 101 L 82 102 L 81 103 Z M 79 101 L 80 100 L 81 101 L 80 102 Z M 78 100 L 79 99 L 80 100 L 79 101 Z M 72 94 L 73 93 L 74 94 L 73 95 Z M 71 93 L 72 92 L 73 93 L 72 94 Z M 61 83 L 62 82 L 63 83 L 62 84 Z M 60 82 L 61 81 L 62 82 L 61 83 Z M 54 76 L 55 75 L 56 76 L 55 77 Z M 52 49 L 53 48 L 54 49 L 53 50 Z M 51 48 L 52 47 L 53 48 L 52 49 Z M 51 44 L 52 43 L 53 44 L 52 45 Z " fill="url(#blue)" fill-rule="evenodd" filter="url(#glow)"/>
</svg>